<?xml version="1.0" encoding="UTF-8" standalone="no"?>
<!-- Created with Inkscape (http://www.inkscape.org/) -->

<svg
   xmlns:dc="http://purl.org/dc/elements/1.1/"
   xmlns:cc="http://creativecommons.org/ns#"
   xmlns:rdf="http://www.w3.org/1999/02/22-rdf-syntax-ns#"
   xmlns:svg="http://www.w3.org/2000/svg"
   xmlns="http://www.w3.org/2000/svg"
   xmlns:sodipodi="http://sodipodi.sourceforge.net/DTD/sodipodi-0.dtd"
   xmlns:inkscape="http://www.inkscape.org/namespaces/inkscape"
   width="120.41666mm"
   height="120.41666mm"
   viewBox="0 0 120.41667 120.41667"
   version="1.1"
   id="svg5514"
   inkscape:export-filename="/home/practicalli/projects/clojurebridge/clojurebridge-logo-modern/clojurebridge-logo-modern.png"
   inkscape:export-xdpi="90"
   inkscape:export-ydpi="90"
   inkscape:version="0.92.4 (5da689c313, 2019-01-14)"
   sodipodi:docname="clojurebridge-logo-modern..svg">
  <defs
     id="defs5508">
    <path
       style="fill:#96ca4b;stroke:#96ca4b;stroke-width:14.12073612;stroke-miterlimit:10;stroke-dasharray:none"
       inkscape:connector-curvature="0"
       stroke-miterlimit="10"
       d="m -529.45529,-92.535512 c 1.83831,8.63947 19.29086,15.44117 40.46542,15.44117 21.17465,0 38.60452,-6.8017 40.44285,-15.44117 h 4.5617 c -1.86097,9.69099 -21.3334,17.3358 -45.02725,17.3358 -23.6937,0 -43.16613,-7.64481 -45.02713,-17.3358 z"
       id="path8957-9-27-3-6-6-6" />
    <path
       style="fill:#ffffff;stroke:#ffffff;stroke-width:6.58514643;stroke-miterlimit:10;stroke-dasharray:none"
       inkscape:connector-curvature="0"
       stroke-miterlimit="10"
       d="m -296.90183,18.628887 c 1.3042,-2.648371 13.68599,-4.733383 28.70839,-4.733383 15.02246,0 27.38817,2.085012 28.69238,4.733383 h 3.23632 c -1.32028,-2.970708 -15.13509,-5.314167 -31.9448,-5.314167 -16.80961,0 -30.62442,2.343459 -31.94472,5.314167 z"
       id="path8957-9-6-74-2" />
    <path
       style="fill:#96ca4b;stroke:#96ca4b;stroke-width:14.12073612;stroke-miterlimit:10;stroke-dasharray:none"
       inkscape:connector-curvature="0"
       stroke-miterlimit="10"
       d="m -529.45529,-92.535512 c 1.83831,8.63947 19.29086,15.44117 40.46542,15.44117 21.17465,0 38.60452,-6.8017 40.44285,-15.44117 h 4.5617 c -1.86097,9.69099 -21.3334,17.3358 -45.02725,17.3358 -23.6937,0 -43.16613,-7.64481 -45.02713,-17.3358 z"
       id="path8957-9-27-3-6-6-6-6" />
    <path
       style="fill:#ffffff;stroke:#ffffff;stroke-width:6.58514643;stroke-miterlimit:10;stroke-dasharray:none"
       inkscape:connector-curvature="0"
       stroke-miterlimit="10"
       d="m -296.90183,18.628887 c 1.3042,-2.648371 13.68599,-4.733383 28.70839,-4.733383 15.02246,0 27.38817,2.085012 28.69238,4.733383 h 3.23632 c -1.32028,-2.970708 -15.13509,-5.314167 -31.9448,-5.314167 -16.80961,0 -30.62442,2.343459 -31.94472,5.314167 z"
       id="path8957-9-6-74-2-2" />
  </defs>
  <sodipodi:namedview
     id="base"
     pagecolor="#ffffff"
     bordercolor="#666666"
     borderopacity="1.0"
     inkscape:pageopacity="0"
     inkscape:pageshadow="2"
     inkscape:zoom="0.11313708"
     inkscape:cx="-423.84536"
     inkscape:cy="-2507.8317"
     inkscape:document-units="mm"
     inkscape:current-layer="layer2"
     showgrid="false"
     inkscape:pagecheckerboard="true"
     fit-margin-top="2"
     fit-margin-left="2"
     fit-margin-right="2"
     fit-margin-bottom="2"
     inkscape:window-width="1712"
     inkscape:window-height="1406"
     inkscape:window-x="1722"
     inkscape:window-y="4"
     inkscape:window-maximized="0" />
  <metadata
     id="metadata5511">
    <rdf:RDF>
      <cc:Work
         rdf:about="">
        <dc:format>image/svg+xml</dc:format>
        <dc:type
           rdf:resource="http://purl.org/dc/dcmitype/StillImage" />
        <dc:title></dc:title>
      </cc:Work>
    </rdf:RDF>
  </metadata>
  <g
     inkscape:label="Background"
     inkscape:groupmode="layer"
     id="layer1"
     transform="translate(804.28034,1029.8628)" />
  <g
     inkscape:groupmode="layer"
     id="layer2"
     inkscape:label="Bridge"
     transform="translate(941.86368,1157.5294)">
    <g
       transform="translate(-606.38332,-2231.3697)"
       id="g15819">
      <circle
         r="57.231213"
         cy="1134.0486"
         cx="-275.27203"
         id="path9069-9-92-5-2-4-7-3-3"
         style="opacity:1;fill:#ffffff;fill-opacity:1;stroke:#ffffff;stroke-width:1.95423663;stroke-linejoin:miter;stroke-miterlimit:4;stroke-dasharray:none;stroke-dashoffset:0;stroke-opacity:1" />
      <path
         id="path8957-9-2-3-67-3-9"
         d="m -318.54847,1136.5887 c 1.94712,8.9156 20.43276,15.9347 42.86071,15.9347 22.42806,0 40.88968,-7.0191 42.83684,-15.9347 h 4.83171 c -1.97114,10.0008 -22.59619,17.8899 -47.69261,17.8899 -25.09619,0 -45.72127,-7.8891 -47.69243,-17.8899 z"
         stroke-miterlimit="10"
         inkscape:connector-curvature="0"
         style="fill:#63b132;fill-opacity:1;stroke:#91dc47;stroke-width:14.76306057;stroke-miterlimit:10;stroke-dasharray:none;stroke-opacity:1" />
      <text
         id="text8986-35-7-5-5-6"
         y="1179.1364"
         x="-305.73523"
         style="font-style:normal;font-variant:normal;font-weight:bold;font-stretch:normal;font-size:8.46444893px;line-height:125%;font-family:Ubuntu;-inkscape-font-specification:'Ubuntu Bold';letter-spacing:0px;word-spacing:0px;fill:#96ca4b;fill-opacity:1;stroke:#96ca4b;stroke-width:0.09919275px;stroke-linecap:butt;stroke-linejoin:miter;stroke-opacity:1"
         xml:space="preserve"><tspan
           style="font-style:normal;font-variant:normal;font-weight:bold;font-stretch:normal;font-size:19.04500961px;font-family:Ubuntu;-inkscape-font-specification:'Ubuntu Bold';fill:#96ca4b;fill-opacity:1;stroke:#96ca4b;stroke-width:0.09919275px;stroke-opacity:1"
           y="1179.1364"
           x="-305.73523"
           id="tspan8984-62-5-3-3-0-2"
           sodipodi:role="line">Bridge</tspan></text>
      <polygon
         inkscape:export-ydpi="90"
         inkscape:export-xdpi="90"
         transform="matrix(0.0399996,0,0,0.03994051,-315.0318,1076.4791)"
         style="fill:#5881d8;fill-opacity:0.44705882;stroke:#ffffff;stroke-width:92.72168732;stroke-miterlimit:4;stroke-dasharray:none;stroke-opacity:1"
         class="st1"
         points="533,439 774.5,439 872.5,744.9 168.3,1836.6 140.3,1880 500.4,1884.5 1024.9,1112.3 1368.5,1979.8 1912,1807.7 1825.5,1540.3 1576,1616.4 990.9,146 533,146 "
         id="polygon4693-5-5-0" />
    </g>
  </g>
</svg>
